<svg xmlns="http://www.w3.org/2000/svg" viewBox="0 0 400 400">
  <path fill="#0179d7" d="M0 0v400h400V0H0z"/>
  <path fill="#65a9e2" d="m173 86 1 1-1-1z"/>
  <path fill="#5492c6" d="M172 87v33h1l-1-33z"/>
  <path fill="#fcfffe" d="M173 87v35c-18 2.7-36.6 10-54 15.3-8.1 2.5-16.7 3.4-23 9.7a83.5 83.5 0 0 0-17 22c-4.4 10.8-.9 29.3-.9 41 0 6.3-2.4 19.2 1 24.6 4.1 6.4 21.9 11.5 29 13.4v-58l1-22.6 10-3.3 24-5 66-13 42-8.1-22-15.7L173 87z"/>
  <path fill="#9fd4fb" d="m174 87 1 1-1-1z"/>
  <path fill="#5492c6" d="m175 87 1 1-1-1z"/>
  <path fill="#65a9e2" d="m176 88 1 1-1-1z"/>
  <path fill="#9fd4fb" d="m177 89 1 1-1-1z"/>
  <path fill="#5492c6" d="m178 89 1 1-1-1z"/>
  <path fill="#9fd4fb" d="m179 90 1 1-1-1m1 1 1 1-1-1z"/>
  <path fill="#65a9e2" d="m181 91 1 1-1-1z"/>
  <path fill="#9fd4fb" d="m182 92 1 1-1-1m1 1 1 1-1-1z"/>
  <path fill="#65a9e2" d="m184 93 1 1-1-1z"/>
  <path fill="#9fd4fb" d="m185 94 1 1-1-1z"/>
  <path fill="#5492c6" d="m186 94 1 1-1-1z"/>
  <path fill="#65a9e2" d="m187 95 1 1-1-1z"/>
  <path fill="#9fd4fb" d="m188 96 1 1-1-1z"/>
  <path fill="#5492c6" d="m189 96 1 1-1-1z"/>
  <path fill="#65a9e2" d="m190 97 1 1-1-1z"/>
  <path fill="#9fd4fb" d="m191 98 1 1-1-1z"/>
  <path fill="#5492c6" d="m192 98 1 1-1-1z"/>
  <path fill="#9fd4fb" d="m193 99 1 1-1-1z"/>
  <path fill="#5492c6" d="m194 99 1 1-1-1z"/>
  <path fill="#65a9e2" d="m195 100 1 1-1-1z"/>
  <path fill="#9fd4fb" d="m196 101 1 1-1-1m1 1 1 1-1-1z"/>
  <path fill="#65a9e2" d="m198 102 1 1-1-1z"/>
  <path fill="#9fd4fb" d="m199 103 1 1-1-1z"/>
  <path fill="#65a9e2" d="m201 104 1 1-1-1z"/>
  <path fill="#9fd4fb" d="m202 105 1 1-1-1z"/>
  <path fill="#5492c6" d="m203 105 1 1-1-1z"/>
  <path fill="#65a9e2" d="m204 106 1 1-1-1z"/>
  <path fill="#9fd4fb" d="m205 107 1 1-1-1z"/>
  <path fill="#5492c6" d="m206 107 1 1-1-1z"/>
  <path fill="#9fd4fb" d="m207 108 2 2-2-2z"/>
  <path fill="#5492c6" d="m208 108 1 1-1-1z"/>
  <path fill="#65a9e2" d="m209 109 1 1-1-1z"/>
  <path fill="#9fd4fb" d="m210 110 1 1-1-1z"/>
  <path fill="#5492c6" d="m211 110 1 1-1-1z"/>
  <path fill="#65a9e2" d="m212 111 1 1-1-1z"/>
  <path fill="#9fd4fb" d="m213 112 3 2v-1l-3-1z"/>
  <path fill="#5492c6" d="m214 112 1 1-1-1z"/>
  <path fill="#9fd4fb" d="m216 114 1 1-1-1z"/>
  <path fill="#5492c6" d="m217 114 1 1-1-1z"/>
  <path fill="#9fd4fb" d="m218 115 2 2-2-2z"/>
  <path fill="#5492c6" d="m219 115 1 1-1-1m1 1 1 1-1-1z"/>
  <path fill="#9fd4fb" d="m221 117 2 2-2-2z"/>
  <path fill="#5492c6" d="m222 117 1 1-1-1z"/>
  <path fill="#65a9e2" d="m223 118 1 1-1-1z"/>
  <path fill="#9fd4fb" d="m224 119 1 1-1-1z"/>
  <path fill="#5492c6" d="m225 119 1 1-1-1z"/>
  <path fill="#65a9e2" d="m172 120 1 1-1-1m54 0 1 1-1-1z"/>
  <path fill="#5492c6" d="m170.7 121.3.6.4-.6-.4z"/>
  <path fill="#9fd4fb" d="m172 121 1 1-1-1m55 0 1 1-1-1z"/>
  <path fill="#5492c6" d="m228 121 1 1-1-1m-61 1 1 1-1-1z"/>
  <path fill="#65a9e2" d="m168 122 1 1-1-1z"/>
  <path fill="#9fd4fb" d="m169 122 1 1-1-1z"/>
  <path fill="#65a9e2" d="m229 122 1 1-1-1m-65 1 1 1-1-1z"/>
  <path fill="#9fd4fb" d="m165.7 123.3.6.4-.6-.4m64.3-.3 1 1-1-1z"/>
  <path fill="#5492c6" d="m231 123 1 1-1-1z"/>
  <path fill="#65a9e2" d="m161 124 1 1-1-1z"/>
  <path fill="#9fd4fb" d="m162 124 1 1-1-1m70 0 2 2-2-2z"/>
  <path fill="#5492c6" d="m233 124 1 1-1-1m-76.3 1.3.6.4-.6-.4z"/>
  <path fill="#65a9e2" d="m158 125 1 1-1-1m76 0 1 1-1-1z"/>
  <path fill="#5492c6" d="m153 126 1 1-1-1z"/>
  <path fill="#65a9e2" d="m154 126 1 1-1-1z"/>
  <path fill="#9fd4fb" d="m155.7 126.3.6.4-.6-.4m79.3-.3 1 1-1-1z"/>
  <path fill="#5492c6" d="m150 127 1 1-1-1z"/>
  <path fill="#9fd4fb" d="m151.7 127.3.6.4-.6-.4z"/>
  <path fill="#65a9e2" d="m237 127 1 1-1-1z"/>
  <path fill="#5492c6" d="m146.7 128.3.6.4-.6-.4z"/>
  <path fill="#9fd4fb" d="m148 128 1 1-1-1m90 0 1 1-1-1z"/>
  <path fill="#5492c6" d="m239 128 1 1-1-1z"/>
  <path fill="#65a9e2" d="m143.7 129.3.6.4-.6-.4z"/>
  <path fill="#9fd4fb" d="m145 129 1 1-1-1z"/>
  <path fill="#65a9e2" d="m240 129 1 1-1-1z"/>
  <path fill="#5492c6" d="m299.7 129.3.6.4-.6-.4z"/>
  <path fill="#65a9e2" d="m301.7 129.3.6.4-.6-.4M140 130l1 1-1-1z"/>
  <path fill="#9fd4fb" d="m141.7 130.3.6.4-.6-.4m99.3-.3 1 1-1-1z"/>
  <path fill="#5492c6" d="m242 130 1 1-1-1m52 0 1 1-1-1z"/>
  <path fill="#65a9e2" d="m295.7 130.3.6.4-.6-.4z"/>
  <path fill="#9fd4fb" d="M297 130v1h3l-3-1z"/>
  <path fill="#fcfffe" d="M253 138v86l1 36-144-10 46 62h1l1-32c20 10.6 43.8 16.8 65 25 6 2.2 17.5 9 24 7.2 10.8-3.1 22.2-17.5 31-24.3 6.8-5.3 21-13.1 24.4-21.2 4.4-10.3.6-29.5.6-40.7v-96l-50 8z"/>
  <path fill="#5492c6" d="M303 130v137h1v-96c0-11.7 3.5-30.3-1-41z"/>
  <path fill="#65a9e2" d="m137 131 1 1-1-1z"/>
  <path fill="#9fd4fb" d="m138.7 131.3.6.4-.6-.4z"/>
  <path fill="#65a9e2" d="m243 131 1 1-1-1z"/>
  <path fill="#5492c6" d="m289 131 1 1-1-1z"/>
  <path fill="#9fd4fb" d="M290 131v1h4l-4-1z"/>
  <path fill="#5492c6" d="m132.7 132.3.6.4-.6-.4z"/>
  <path fill="#65a9e2" d="m134 132 1 1-1-1z"/>
  <path fill="#9fd4fb" d="m244 132 1 1-1-1z"/>
  <path fill="#5492c6" d="m245 132 1 1-1-1m36 0v1h4l-4-1z"/>
  <path fill="#9fd4fb" d="m285 132 1 1-1-1z"/>
  <path fill="#5492c6" d="m129 133 1 1-1-1z"/>
  <path fill="#65a9e2" d="m130 133 1 1-1-1z"/>
  <path fill="#9fd4fb" d="m131 133 1 1-1-1m115 0 1 1-1-1z"/>
  <path fill="#5492c6" d="m247 133 1 1-1-1m28 0 1 1-1-1z"/>
  <path fill="#65a9e2" d="M276 133v1h4l-4-1z"/>
  <path fill="#9fd4fb" d="m280 133 1 1-1-1z"/>
  <path fill="#5492c6" d="m126 134 1 1-1-1z"/>
  <path fill="#9fd4fb" d="m127.7 134.3.6.4-.6-.4z"/>
  <path fill="#5492c6" d="m248 134 1 1-1-1m22 0 1 1-1-1z"/>
  <path fill="#65a9e2" d="m271 134 1 1-1-1z"/>
  <path fill="#9fd4fb" d="M272 134v1h3l-3-1z"/>
  <path fill="#65a9e2" d="m123 135 1 1-1-1z"/>
  <path fill="#9fd4fb" d="m124.7 135.3.6.4-.6-.4M249 135l1 1-1-1z"/>
  <path fill="#5492c6" d="m250 135 1 1-1-1m15 0 1 1-1-1z"/>
  <path fill="#9fd4fb" d="m266.7 135.3.6.4-.6-.4m2.3-.3 1 1-1-1z"/>
  <path fill="#5492c6" d="M118 136v1h3l-3-1z"/>
  <path fill="#9fd4fb" d="m121 136 1 1-1-1z"/>
  <path fill="#65a9e2" d="m251 136 1 1-1-1z"/>
  <path fill="#5492c6" d="M256 136v1h4l-4-1z"/>
  <path fill="#65a9e2" d="m260 136 1 1-1-1z"/>
  <path fill="#9fd4fb" d="m261 136 1 1-1-1z"/>
  <path fill="#65a9e2" d="m116 137 1 1-1-1z"/>
  <path fill="#9fd4fb" d="m117.7 137.3.6.4-.6-.4M251 137l1 1-1-1z"/>
  <path fill="#5492c6" d="m252 137 1 1-1-1z"/>
  <path fill="#65a9e2" d="M253 137v1h3l-3-1z"/>
  <path fill="#9fd4fb" d="m256 137 1 1-1-1z"/>
  <path fill="#5492c6" d="m112 138 1 1-1-1z"/>
  <path fill="#9fd4fb" d="M113 138v1h3l-3-1m133 0 1 1-1-1z"/>
  <path fill="#65a9e2" d="m247 138 1 1-1-1z"/>
  <path fill="#5492c6" d="M248 138v1h3l-3-1z"/>
  <path fill="#0179d7" d="m109 249 144 10V138c-36 6.8-72.5 13-108 21.6-7.9 2-29.9 1.6-35 8.1-3.3 4.3-1 17-1 22.3v59z"/>
  <path fill="#5492c6" d="m109 139 1 1-1-1z"/>
  <path fill="#9fd4fb" d="m110 139 1 1-1-1m132 0 1 1-1-1z"/>
  <path fill="#65a9e2" d="m243 139 1 1-1-1z"/>
  <path fill="#5492c6" d="m244 139 1 1-1-1m-139 1 1 1-1-1z"/>
  <path fill="#65a9e2" d="m106 140 1 1-1-1z"/>
  <path fill="#9fd4fb" d="m107 140 1 1-1-1m128 0v1h3l-3-1z"/>
  <path fill="#65a9e2" d="m238 140 1 1-1-1z"/>
  <path fill="#5492c6" d="m239 140 1 1-1-1z"/>
  <path fill="#9fd4fb" d="m253 140 1 1-1-1z"/>
  <path fill="#65a9e2" d="m102 141 1 1-1-1z"/>
  <path fill="#9fd4fb" d="m103.7 141.3.6.4-.6-.4M231 141l1 1-1-1z"/>
  <path fill="#65a9e2" d="M232 141v1h3l-3-1z"/>
  <path fill="#5492c6" d="m235 141 1 1-1-1z"/>
  <path fill="#65a9e2" d="m99 142 1 1-1-1z"/>
  <path fill="#9fd4fb" d="m100.7 142.3.6.4-.6-.4M227 142l1 1-1-1z"/>
  <path fill="#5492c6" d="M228 142v1h3l-3-1z"/>
  <path fill="#9fd4fb" d="m253.3 142.7.4.6-.4-.6z"/>
  <path fill="#5492c6" d="m98 143-2 3 2-3z"/>
  <path fill="#9fd4fb" d="m99 143 1 1-1-1m122 0v1h3l-3-1z"/>
  <path fill="#5492c6" d="m224 143 1 1-1-1z"/>
  <path fill="#9fd4fb" d="m98 144 1 1-1-1m118 0v1h3l-3-1z"/>
  <path fill="#65a9e2" d="m219 144 1 1-1-1z"/>
  <path fill="#9fd4fb" d="m97 145 1 1-1-1z"/>
  <path fill="#65a9e2" d="m212 145 1 1-1-1z"/>
  <path fill="#5492c6" d="M213 145v1h3l-3-1z"/>
  <path fill="#9fd4fb" d="m96 146 1 1-1-1m111 0 1 1-1-1z"/>
  <path fill="#5492c6" d="m208.7 146.3.6.4-.6-.4z"/>
  <path fill="#65a9e2" d="m95 147 1 1-1-1z"/>
  <path fill="#9fd4fb" d="M200 147v1h4l-4-1z"/>
  <path fill="#5492c6" d="m204 147 1 1-1-1m-110 1 1 1-1-1z"/>
  <path fill="#9fd4fb" d="m196 148 1 1-1-1z"/>
  <path fill="#65a9e2" d="M197 148v1h3l-3-1z"/>
  <path fill="#5492c6" d="m200 148 1 1-1-1m-107 1 1 1-1-1z"/>
  <path fill="#9fd4fb" d="m192 149 1 1-1-1z"/>
  <path fill="#65a9e2" d="m193 149 1 1-1-1z"/>
  <path fill="#5492c6" d="m194.7 149.3.6.4-.6-.4M92 150l1 1-1-1z"/>
  <path fill="#9fd4fb" d="M185 150v1h3l-3-1z"/>
  <path fill="#65a9e2" d="m188 150 1 1-1-1z"/>
  <path fill="#5492c6" d="m189 150 1 1-1-1z"/>
  <path fill="#9fd4fb" d="m92 151 1 1-1-1m89 0v1h3l-3-1z"/>
  <path fill="#65a9e2" d="m184 151 1 1-1-1m-93 1 1 1-1-1m86 0 1 1-1-1z"/>
  <path fill="#5492c6" d="m178 152 1 1-1-1z"/>
  <path fill="#65a9e2" d="m179 152 1 1-1-1z"/>
  <path fill="#5492c6" d="m180 152 1 1-1-1z"/>
  <path fill="#65a9e2" d="m90 153 1 1-1-1z"/>
  <path fill="#9fd4fb" d="m172 153 1 1-1-1z"/>
  <path fill="#65a9e2" d="m173 153 1 1-1-1z"/>
  <path fill="#5492c6" d="m174.7 153.3.6.4-.6-.4z"/>
  <path fill="#65a9e2" d="m89 154 1 1-1-1z"/>
  <path fill="#9fd4fb" d="M165 154v1h4l-4-1z"/>
  <path fill="#5492c6" d="m169 154 1 1-1-1m-81 1 1 1-1-1z"/>
  <path fill="#9fd4fb" d="m161.7 155.3.6.4-.6-.4z"/>
  <path fill="#65a9e2" d="m163.7 155.3.6.4-.6-.4z"/>
  <path fill="#5492c6" d="m165 155 1 1-1-1z"/>
  <path fill="#9fd4fb" d="m88 156 1 1-1-1m68 0 1 1-1-1z"/>
  <path fill="#65a9e2" d="m157 156 1 1-1-1z"/>
  <path fill="#5492c6" d="M158 156v1h3l-3-1z"/>
  <path fill="#9fd4fb" d="m87 157 1 1-1-1m64.7.3.6.4-.6-.4z"/>
  <path fill="#65a9e2" d="m153 157 1 1-1-1m-67 1 1 1-1-1z"/>
  <path fill="#9fd4fb" d="M145 158v1h3l-3-1z"/>
  <path fill="#65a9e2" d="m148 158 1 1-1-1z"/>
  <path fill="#5492c6" d="m149 158 1 1-1-1m-64 1-1 2 1-2z"/>
  <path fill="#9fd4fb" d="m141.7 159.3.6.4-.6-.4z"/>
  <path fill="#65a9e2" d="m143.7 159.3.6.4-.6-.4z"/>
  <path fill="#5492c6" d="m145 159 1 1-1-1z"/>
  <path fill="#9fd4fb" d="m85 160 1 1-1-1m52 0 1 1-1-1z"/>
  <path fill="#65a9e2" d="m138 160 1 1-1-1z"/>
  <path fill="#5492c6" d="M139 160v1h3l-3-1z"/>
  <path fill="#9fd4fb" d="m84 161 1 1-1-1m46 0v1h4l-4-1z"/>
  <path fill="#5492c6" d="m134 161 1 1-1-1z"/>
  <path fill="#9fd4fb" d="m83 162 1 1-1-1m43 0 1 1-1-1z"/>
  <path fill="#65a9e2" d="M127 162v1h3l-3-1z"/>
  <path fill="#5492c6" d="m130 162 1 1-1-1z"/>
  <path fill="#9fd4fb" d="m82 163 1 1-1-1m40 0 1 1-1-1z"/>
  <path fill="#5492c6" d="M123 163v1h3l-3-1m-42 1 1 1-1-1z"/>
  <path fill="#9fd4fb" d="m116.7 164.3.6.4-.6-.4z"/>
  <path fill="#65a9e2" d="m118 164 1 1-1-1z"/>
  <path fill="#5492c6" d="m80 165 1 1-1-1z"/>
  <path fill="#9fd4fb" d="M110 165v1h3l-3-1z"/>
  <path fill="#65a9e2" d="m113 165 1 1-1-1z"/>
  <path fill="#5492c6" d="m114 165 1 1-1-1m-35 1 1 1-1-1z"/>
  <path fill="#9fd4fb" d="M108 166v82h1v-57l-1-25z"/>
  <path fill="#65a9e2" d="m109 166 1 1-1-1z"/>
  <path fill="#5492c6" d="m110 166 1 1-1-1z"/>
  <path fill="#9fd4fb" d="m79 167 1 1-1-1m-1 1 1 1-1-1z"/>
  <path fill="#65a9e2" d="m77 169 1 1-1-1z"/>
  <path fill="#9fd4fb" d="M77 170c0 20-4.7 46.8 1 66h1l-1-47-1-19z"/>
  <path fill="#65a9e2" d="m77 235 1 1-1-1z"/>
  <path fill="#5492c6" d="m79 236 1 1-1-1z"/>
  <path fill="#9fd4fb" d="m80 236 1 1-1-1z"/>
  <path fill="#5492c6" d="m81 237 1 1-1-1z"/>
  <path fill="#65a9e2" d="m82 237 1 1-1-1z"/>
  <path fill="#5492c6" d="m83 238 1 1-1-1z"/>
  <path fill="#65a9e2" d="m84 238 1 1-1-1z"/>
  <path fill="#5492c6" d="m86 239 1 1-1-1z"/>
  <path fill="#9fd4fb" d="m87 239 1 1-1-1z"/>
  <path fill="#5492c6" d="m88 240 1 1-1-1z"/>
  <path fill="#9fd4fb" d="m89 240 1 1-1-1z"/>
  <path fill="#5492c6" d="m90 241 1 1-1-1z"/>
  <path fill="#65a9e2" d="m91 241 1 1-1-1z"/>
  <path fill="#5492c6" d="m92 242 1 1-1-1z"/>
  <path fill="#65a9e2" d="m93 242 1 1-1-1z"/>
  <path fill="#9fd4fb" d="m94 242 1 1-1-1z"/>
  <path fill="#65a9e2" d="m95 243 1 1-1-1z"/>
  <path fill="#9fd4fb" d="m96 243 1 1-1-1z"/>
  <path fill="#5492c6" d="m97 244 1 1-1-1z"/>
  <path fill="#9fd4fb" d="m98 244 1 1-1-1z"/>
  <path fill="#5492c6" d="m99 245 1 1-1-1z"/>
  <path fill="#65a9e2" d="m100 245 1 1-1-1z"/>
  <path fill="#5492c6" d="m101 246 1 1-1-1z"/>
  <path fill="#65a9e2" d="m102 246 1 1-1-1z"/>
  <path fill="#9fd4fb" d="m103 246 1 1-1-1z"/>
  <path fill="#5492c6" d="m104 247 1 1-1-1z"/>
  <path fill="#9fd4fb" d="m105 247 1 1-1-1z"/>
  <path fill="#5492c6" d="m106 248 1 1-1-1z"/>
  <path fill="#65a9e2" d="m107.7 248.3.6.4-.6-.4m1.6 1.4.4.6-.4-.6z"/>
  <path fill="#9fd4fb" d="m110 249 1 1-1-1z"/>
  <path fill="#65a9e2" d="m111.7 249.3.6.4-.6-.4z"/>
  <path fill="#5492c6" d="m113 249 1 1-1-1z"/>
  <path fill="#9fd4fb" d="m121.7 250.3.6.4-.6-.4z"/>
  <path fill="#65a9e2" d="m123.7 250.3.6.4-.6-.4z"/>
  <path fill="#5492c6" d="M125 250v1h8l-8-1z"/>
  <path fill="#65a9e2" d="m110 251 1 1-1-1z"/>
  <path fill="#9fd4fb" d="M132 251v1h3l-3-1z"/>
  <path fill="#65a9e2" d="M135 251v1h8l-8-1z"/>
  <path fill="#5492c6" d="m143 251 1 1-1-1z"/>
  <path fill="#65a9e2" d="m111 252 1 1-1-1z"/>
  <path fill="#9fd4fb" d="M144 252v1h10l-10-1z"/>
  <path fill="#65a9e2" d="m154 252 1 1-1-1z"/>
  <path fill="#5492c6" d="m155 252 1 1-1-1z"/>
  <path fill="#9fd4fb" d="m112 253 1 1-1-1m48 0v1h5l-5-1z"/>
  <path fill="#65a9e2" d="m165 253 1 1-1-1z"/>
  <path fill="#5492c6" d="m166 253 1 1-1-1m2 0v1h6l-6-1z"/>
  <path fill="#65a9e2" d="m112 254 1 1-1-1z"/>
  <path fill="#9fd4fb" d="m174.7 254.3.6.4-.6-.4z"/>
  <path fill="#65a9e2" d="M176 254v1h4l-4-1z"/>
  <path fill="#5492c6" d="M180 254v1h7l-7-1z"/>
  <path fill="#65a9e2" d="m113 255 1 1-1-1z"/>
  <path fill="#9fd4fb" d="M186 255v1h7l-7-1z"/>
  <path fill="#65a9e2" d="M193 255v1h3l-3-1z"/>
  <path fill="#5492c6" d="m196.7 255.3.6.4-.6-.4z"/>
  <path fill="#9fd4fb" d="m114 256 2 2-2-2m84 0v1h9l-9-1z"/>
  <path fill="#65a9e2" d="m207 256 1 1-1-1z"/>
  <path fill="#5492c6" d="m208.7 256.3.6.4-.6-.4m-94.7.7 1 1-1-1z"/>
  <path fill="#9fd4fb" d="m216.7 257.3.6.4-.6-.4z"/>
  <path fill="#65a9e2" d="m218.7 257.3.6.4-.6-.4z"/>
  <path fill="#5492c6" d="M220 257v1h8l-8-1m-105 1 1 1-1-1z"/>
  <path fill="#9fd4fb" d="M227 258v1h3l-3-1z"/>
  <path fill="#65a9e2" d="M230 258v1h7l-7-1z"/>
  <path fill="#5492c6" d="M237 258v1h3l-3-1m-121 1 1 1-1-1z"/>
  <path fill="#9fd4fb" d="M239 259v1h9l-9-1z"/>
  <path fill="#65a9e2" d="m248.7 259.3.6.4-.6-.4z"/>
  <path fill="#5492c6" d="M250 259v1h3l-3-1z"/>
  <path fill="#9fd4fb" d="m253 259 1 1-1-1m-136 1 1 1-1-1m1 1 2 2-2-2z"/>
  <path fill="#5492c6" d="m118 262 1 1-1-1m1 1 1 1-1-1z"/>
  <path fill="#9fd4fb" d="m120 264 1 1-1-1m1 1 1 1-1-1z"/>
  <path fill="#5492c6" d="m121 266 1 1-1-1z"/>
  <path fill="#65a9e2" d="m122 267 1 1-1-1m1 1 1 1-1-1z"/>
  <path fill="#9fd4fb" d="m301 268-1 2 1-2z"/>
  <path fill="#5492c6" d="m302 268 1 1-1-1z"/>
  <path fill="#9fd4fb" d="m124 269 1 1-1-1z"/>
  <path fill="#5492c6" d="m301 269 1 1-1-1m-177 1 1 1-1-1z"/>
  <path fill="#65a9e2" d="m299 270 1 1-1-1z"/>
  <path fill="#5492c6" d="m125 271 1 1-1-1z"/>
  <path fill="#65a9e2" d="m298 271 1 1-1-1m-172 1 1 1-1-1z"/>
  <path fill="#9fd4fb" d="m296 272-1 2 1-2z"/>
  <path fill="#5492c6" d="m297 272 1 1-1-1m-171 1 3 3-3-3z"/>
  <path fill="#9fd4fb" d="m127 273 1 1-1-1z"/>
  <path fill="#5492c6" d="m296 273 1 1-1-1z"/>
  <path fill="#9fd4fb" d="m128 274 1 1-1-1z"/>
  <path fill="#65a9e2" d="m294 274 1 1-1-1m-1 1 1 1-1-1m-164 1 1 1-1-1z"/>
  <path fill="#5492c6" d="m292 276 1 1-1-1z"/>
  <path fill="#9fd4fb" d="m130 277 1 1-1-1m160 0 1 1-1-1z"/>
  <path fill="#5492c6" d="m291 277 1 1-1-1z"/>
  <path fill="#9fd4fb" d="m131 278 1 1-1-1m158 0 1 1-1-1z"/>
  <path fill="#5492c6" d="m131 279 1 1-1-1z"/>
  <path fill="#65a9e2" d="m288 279 1 1-1-1m-156 1 1 1-1-1z"/>
  <path fill="#9fd4fb" d="m158 280-1 5h1v-5z"/>
  <path fill="#5492c6" d="m287 280 1 1-1-1z"/>
  <path fill="#9fd4fb" d="m133 281 1 1-1-1z"/>
  <path fill="#5492c6" d="m158.7 281.3.6.4-.6-.4z"/>
  <path fill="#9fd4fb" d="m160 281 1 1-1-1z"/>
  <path fill="#5492c6" d="m286 281 1 1-1-1z"/>
  <path fill="#9fd4fb" d="m134 282 1 1-1-1z"/>
  <path fill="#65a9e2" d="m162 282 1 1-1-1z"/>
  <path fill="#9fd4fb" d="m163 282 1 1-1-1m121 0 1 1-1-1z"/>
  <path fill="#5492c6" d="m134 283 1 1-1-1m30 0 1 1-1-1z"/>
  <path fill="#9fd4fb" d="m165.7 283.3.6.4-.6-.4z"/>
  <path fill="#65a9e2" d="m283 283 1 1-1-1m-148 1 1 1-1-1m32.7.3.6.4-.6-.4M282 284l1 1-1-1z"/>
  <path fill="#9fd4fb" d="m136 285 1 1-1-1z"/>
  <path fill="#5492c6" d="m169.7 285.3.6.4-.6-.4z"/>
  <path fill="#9fd4fb" d="m171 285 1 1-1-1z"/>
  <path fill="#5492c6" d="m281 285 1 1-1-1z"/>
  <path fill="#9fd4fb" d="m137 286 1 1-1-1m20 0v27h1l-1-27z"/>
  <path fill="#65a9e2" d="m173 286 1 1-1-1z"/>
  <path fill="#9fd4fb" d="m174 286 1 1-1-1m105 0 1 1-1-1z"/>
  <path fill="#5492c6" d="m137 287 1 1-1-1z"/>
  <path fill="#65a9e2" d="m175 287 1 1-1-1z"/>
  <path fill="#9fd4fb" d="m176 287 1 1-1-1m102 0 1 1-1-1z"/>
  <path fill="#65a9e2" d="m138 288 1 1-1-1z"/>
  <path fill="#5492c6" d="m177 288 1 1-1-1z"/>
  <path fill="#65a9e2" d="m178 288 1 1-1-1z"/>
  <path fill="#9fd4fb" d="m179 288 1 1-1-1z"/>
  <path fill="#65a9e2" d="m277 288 1 1-1-1z"/>
  <path fill="#9fd4fb" d="m139 289 1 1-1-1z"/>
  <path fill="#5492c6" d="m180 289 1 1-1-1z"/>
  <path fill="#65a9e2" d="m181 289 1 1-1-1z"/>
  <path fill="#9fd4fb" d="m182 289 1 1-1-1m93 0-1 2 1-2z"/>
  <path fill="#65a9e2" d="m276 289 1 1-1-1z"/>
  <path fill="#9fd4fb" d="m140 290 2 2-2-2z"/>
  <path fill="#5492c6" d="m183 290 1 1-1-1z"/>
  <path fill="#9fd4fb" d="m184.7 290.3.6.4-.6-.4z"/>
  <path fill="#5492c6" d="m275 290 1 1-1-1m-135 1 1 1-1-1z"/>
  <path fill="#65a9e2" d="m186 291 1 1-1-1z"/>
  <path fill="#9fd4fb" d="m187 291 1 1-1-1m86 0 1 1-1-1z"/>
  <path fill="#65a9e2" d="m141 292 1 1-1-1z"/>
  <path fill="#5492c6" d="m188 292 1 1-1-1z"/>
  <path fill="#65a9e2" d="m189 292 1 1-1-1z"/>
  <path fill="#9fd4fb" d="m190 292 1 1-1-1m82 0 1 1-1-1m-130 1 1 1-1-1z"/>
  <path fill="#5492c6" d="m191 293 1 1-1-1z"/>
  <path fill="#9fd4fb" d="m192.7 293.3.6.4-.6-.4z"/>
  <path fill="#5492c6" d="m271 293 1 1-1-1z"/>
  <path fill="#9fd4fb" d="m143 294 1 1-1-1z"/>
  <path fill="#5492c6" d="m193 294 1 1-1-1z"/>
  <path fill="#65a9e2" d="m194 294 1 1-1-1z"/>
  <path fill="#9fd4fb" d="m195 294 1 1-1-1m74 0-1 2 1-2z"/>
  <path fill="#5492c6" d="m270 294 1 1-1-1m-127 1 1 1-1-1m53 0 1 1-1-1z"/>
  <path fill="#65a9e2" d="m197 295 1 1-1-1z"/>
  <path fill="#9fd4fb" d="m198 295 1 1-1-1z"/>
  <path fill="#5492c6" d="m269 295 1 1-1-1z"/>
  <path fill="#65a9e2" d="m144 296 1 1-1-1z"/>
  <path fill="#5492c6" d="m199 296 1 1-1-1z"/>
  <path fill="#9fd4fb" d="m200.7 296.3.6.4-.6-.4m66.3-.3 1 1-1-1z"/>
  <path fill="#65a9e2" d="m145 297 1 1-1-1m57 0 1 1-1-1z"/>
  <path fill="#9fd4fb" d="m203 297 1 1-1-1z"/>
  <path fill="#65a9e2" d="m266 297 1 1-1-1z"/>
  <path fill="#9fd4fb" d="m146 298 1 1-1-1z"/>
  <path fill="#5492c6" d="m204 298 1 1-1-1z"/>
  <path fill="#65a9e2" d="m205 298 1 1-1-1z"/>
  <path fill="#9fd4fb" d="m206 298 1 1-1-1z"/>
  <path fill="#5492c6" d="m265 298 1 1-1-1m-119 1 1 1-1-1m60.7.3.6.4-.6-.4z"/>
  <path fill="#9fd4fb" d="m208 299 1 1-1-1m55 0 1 1-1-1z"/>
  <path fill="#5492c6" d="m264 299 1 1-1-1z"/>
  <path fill="#65a9e2" d="m147 300 1 1-1-1m63 0 1 1-1-1z"/>
  <path fill="#9fd4fb" d="m211 300 1 1-1-1m51 0 1 1-1-1m-114 1 1 1-1-1z"/>
  <path fill="#5492c6" d="m212 301 1 1-1-1z"/>
  <path fill="#9fd4fb" d="m213.7 301.3.6.4-.6-.4z"/>
  <path fill="#65a9e2" d="m261 301 1 1-1-1z"/>
  <path fill="#9fd4fb" d="m149 302 1 1-1-1z"/>
  <path fill="#5492c6" d="m215 302 1 1-1-1z"/>
  <path fill="#9fd4fb" d="m216 302 1 1-1-1z"/>
  <path fill="#65a9e2" d="m260 302 1 1-1-1z"/>
  <path fill="#5492c6" d="m149 303 1 1-1-1m68.7.3.6.4-.6-.4z"/>
  <path fill="#9fd4fb" d="m258 303 1 1-1-1z"/>
  <path fill="#5492c6" d="m259 303 1 1-1-1m-109 1 1 1-1-1m70 0 1 1-1-1z"/>
  <path fill="#9fd4fb" d="m221.7 304.3.6.4-.6-.4m35.3-.3 1 1-1-1z"/>
  <path fill="#65a9e2" d="m151 305 1 1-1-1m72.7.3.6.4-.6-.4m32.3-.3 1 1-1-1z"/>
  <path fill="#9fd4fb" d="m152 306 1 1-1-1z"/>
  <path fill="#5492c6" d="m225.7 306.3.6.4-.6-.4z"/>
  <path fill="#65a9e2" d="m255 306 1 1-1-1z"/>
  <path fill="#5492c6" d="m152 307 1 1-1-1m76 0 1 1-1-1z"/>
  <path fill="#9fd4fb" d="m229.7 307.3.6.4-.6-.4m23.3-.3 1 1-1-1z"/>
  <path fill="#5492c6" d="m254 307 1 1-1-1m-101 1 1 1-1-1z"/>
  <path fill="#65a9e2" d="m231 308 1 1-1-1z"/>
  <path fill="#9fd4fb" d="m232 308 1 1-1-1m20 0 1 1-1-1m-98 1 1 1-1-1z"/>
  <path fill="#5492c6" d="m233 309 1 1-1-1z"/>
  <path fill="#65a9e2" d="m234 309 1 1-1-1z"/>
  <path fill="#9fd4fb" d="m235 309 1 1-1-1m16 0 1 1-1-1m-96 1 1 1-1-1z"/>
  <path fill="#5492c6" d="m236 310 1 1-1-1z"/>
  <path fill="#9fd4fb" d="m237 310 1 1-1-1z"/>
  <path fill="#65a9e2" d="m250 310 1 1-1-1z"/>
  <path fill="#5492c6" d="m239 311 1 1-1-1z"/>
  <path fill="#9fd4fb" d="m240.7 311.3.6.4-.6-.4z"/>
  <path fill="#5492c6" d="m249 311 1 1-1-1z"/>
  <path fill="#65a9e2" d="m156 312 1 1-1-1m86 0 1 1-1-1z"/>
  <path fill="#9fd4fb" d="m243 312 1 1-1-1m4 0 1 1-1-1z"/>
  <path fill="#5492c6" d="m248 312 1 1-1-1m-91 1 1 1-1-1z"/>
  <path fill="#65a9e2" d="m244 313 1 1-1-1z"/>
  <path fill="#9fd4fb" d="m245 313 1 1-1-1z"/>
  <path fill="#65a9e2" d="m246 313 1 1-1-1z"/>
</svg>
