<svg width="20" height="20" viewBox="0 0 20 20" fill="none" xmlns="http://www.w3.org/2000/svg">
<path d="M15.1592 2H5.01837V10.752H15.1592V2Z" fill="#A72824"/>
<path d="M16.5448 3.39355H3.47437V14.052H16.5448V3.39355Z" fill="#B52D25"/>
<path d="M18 4.72559H2V18H18V4.72559Z" fill="#D74F27"/>
<path d="M13.2832 8.72324C14.1271 8.72324 14.8112 8.0993 14.8112 7.32964C14.8112 6.55997 14.1271 5.93604 13.2832 5.93604C12.4393 5.93604 11.7552 6.55997 11.7552 7.32964C11.7552 8.0993 12.4393 8.72324 13.2832 8.72324Z" stroke="white" stroke-width="1.2" stroke-miterlimit="10"/>
<path d="M6.95842 16.8145C7.80231 16.8145 8.48642 16.1906 8.48642 15.4209C8.48642 14.6513 7.80231 14.0273 6.95842 14.0273C6.11453 14.0273 5.43042 14.6513 5.43042 15.4209C5.43042 16.1906 6.11453 16.8145 6.95842 16.8145Z" stroke="white" stroke-width="1.2" stroke-miterlimit="10"/>
<path d="M6.95842 8.72324C7.80231 8.72324 8.48642 8.0993 8.48642 7.32964C8.48642 6.55997 7.80231 5.93604 6.95842 5.93604C6.11453 5.93604 5.43042 6.55997 5.43042 7.32964C5.43042 8.0993 6.11453 8.72324 6.95842 8.72324Z" stroke="white" stroke-width="1.2" stroke-miterlimit="10"/>
<path d="M6.95844 14.027V12.3406L13.2832 10.1646V8.72217" stroke="white" stroke-width="1.2" stroke-miterlimit="10"/>
<path d="M6.95844 8.72217V12.3406" stroke="white" stroke-width="1.2" stroke-miterlimit="10"/>
</svg>
