<svg width="20" height="20" viewBox="0 0 20 20" fill="none" xmlns="http://www.w3.org/2000/svg">
<rect width="20" height="20" fill="white"/>
<path d="M9.06 6.05615H2V10.2442L4.2792 11.9786L5.8152 11.3098L9.06 6.05615Z" fill="#3A56A1"/>
<path d="M13.8904 11.1606V17.9998H9.45675L7.79675 15.7446L8.39115 14.5798L13.8904 11.1606Z" fill="#344E9B"/>
<path d="M18 2L17.98 5.5232L17.9592 9.048L17.736 8.8288L8.65761 15.4168L4.66321 11.4208L11.1368 2.3648L10.9568 2.188L14.4784 2.0936L18 2Z" fill="#4B68AD"/>
<path d="M2.44556 14.0352V17.4552H5.81516" stroke="#9EB2DB" stroke-width="1.2" stroke-miterlimit="10"/>
<path d="M13.736 7.98913C14.6832 7.98913 15.4512 7.22085 15.4512 6.27313C15.4512 5.32541 14.6832 4.55713 13.736 4.55713C12.7887 4.55713 12.0208 5.32541 12.0208 6.27313C12.0208 7.22085 12.7887 7.98913 13.736 7.98913Z" fill="#9EB2DB"/>
</svg>
